<?xml version="1.0" standalone="no"?>
<!DOCTYPE svg PUBLIC "-//W3C//DTD SVG 20010904//EN"
 "http://www.w3.org/TR/2001/REC-SVG-20010904/DTD/svg10.dtd">
<svg version="1.0" xmlns="http://www.w3.org/2000/svg"
 width="500.000000pt" height="500.000000pt" viewBox="0 0 500.000000 500.000000"
 preserveAspectRatio="xMidYMid meet">

<g transform="translate(0.000000,500.000000) scale(0.100000,-0.100000)"
fill="#000000" stroke="none">
<path d="M2348 3654 c-79 -14 -196 -54 -236 -80 -29 -19 -47 -7 -73 51 -13 30
-18 35 -18 18 -1 -32 -57 -90 -94 -99 l-32 -7 43 -18 c23 -10 42 -20 42 -23 0
-3 -25 -29 -56 -58 -31 -29 -76 -80 -100 -114 -47 -66 -109 -191 -119 -239 -3
-16 7 2 23 40 38 94 75 157 139 237 51 62 119 125 128 116 2 -2 11 -19 18 -38
14 -33 15 -33 22 -9 15 47 45 78 88 90 30 9 36 14 22 17 -44 9 -37 22 26 50
152 69 360 88 519 48 253 -63 463 -241 568 -482 104 -239 73 -571 -71 -773
-46 -65 -54 -82 -18 -41 41 47 93 148 128 245 26 76 28 89 28 250 0 165 -1
173 -32 261 -46 131 -104 225 -203 325 -199 200 -463 284 -742 233z m-247
-114 c5 0 -10 -17 -33 -38 l-41 -39 -37 36 -38 36 37 36 36 36 34 -34 c19 -18
38 -33 42 -33z"/>
<path d="M2287 3160 c41 -17 47 -45 48 -230 0 -138 -3 -174 -13 -172 -10 2
-10 -2 -2 -17 6 -11 10 -88 10 -182 0 -150 -1 -160 -17 -148 -15 13 -15 12 0
-12 15 -23 15 -27 1 -47 -8 -12 -29 -26 -47 -31 -21 -6 72 -9 283 -10 l315 -1
29 83 c41 116 41 117 8 67 -69 -105 -106 -120 -290 -120 -181 0 -174 -7 -180
179 l-4 138 33 39 c24 28 26 32 7 16 -29 -27 -44 -16 -34 24 4 15 0 34 -10 49
-11 17 -14 33 -9 48 5 12 11 87 14 167 l6 145 172 0 c197 0 214 -6 245 -86
l17 -44 0 40 c1 22 -2 57 -5 78 l-7 37 -296 -1 c-181 0 -288 -4 -274 -9z"/>
<path d="M1691 3034 c0 -11 3 -14 6 -6 3 7 2 16 -1 19 -3 4 -6 -2 -5 -13z"/>
<path d="M1670 2925 c-7 -48 -9 -111 -5 -143 8 -68 35 -195 41 -190 2 3 -3 38
-12 79 -12 55 -15 108 -11 207 2 72 3 132 2 132 -2 0 -8 -38 -15 -85z"/>
<path d="M2270 2852 c0 -17 4 -34 10 -37 6 -4 7 6 3 27 -8 44 -13 48 -13 10z"/>
<path d="M2780 2854 c0 -28 -53 -70 -97 -77 -55 -9 -66 -27 -16 -27 52 0 100
-31 112 -72 7 -26 9 -9 10 80 1 61 -1 112 -4 112 -3 0 -5 -7 -5 -16z"/>
<path d="M2262 2634 c-8 -16 -9 -31 -3 -41 8 -14 9 -14 14 3 3 10 8 29 12 42
9 30 -9 28 -23 -4z"/>
<path d="M2516 2608 c-9 -12 -16 -34 -15 -48 1 -23 2 -21 18 13 10 20 21 34
25 30 4 -4 4 0 0 10 -8 22 -10 21 -28 -5z"/>
<path d="M2155 2590 c3 -5 8 -10 11 -10 2 0 4 5 4 10 0 6 -5 10 -11 10 -5 0
-7 -4 -4 -10z"/>
<path d="M1710 2577 c0 -15 42 -117 50 -122 5 -3 -3 23 -17 57 -24 61 -33 78
-33 65z"/>
<path d="M2186 2548 c10 -13 34 -36 53 -52 26 -21 22 -15 -14 22 -52 55 -67
66 -39 30z"/>
<path d="M2140 2499 c0 -7 -12 -10 -29 -7 -17 2 -28 1 -25 -4 10 -16 74 -5 74
13 0 5 -4 9 -10 9 -5 0 -10 -5 -10 -11z"/>
<path d="M2545 2480 c-3 -5 -1 -10 4 -10 6 0 11 5 11 10 0 6 -2 10 -4 10 -3 0
-8 -4 -11 -10z"/>
<path d="M2283 2463 c-17 -6 -17 -30 0 -30 7 0 13 9 13 19 0 10 0 18 -1 17 0
0 -6 -3 -12 -6z"/>
<path d="M1770 2436 c0 -10 79 -126 86 -126 6 0 6 0 -42 71 -40 61 -44 65 -44
55z"/>
<path d="M711 1986 c-28 -30 -31 -84 -7 -121 10 -15 39 -36 64 -47 66 -29 92
-55 92 -94 0 -33 -15 -51 -59 -71 -24 -10 -23 -11 14 -6 57 8 82 27 96 72 17
58 -7 94 -96 140 -42 22 -76 47 -85 63 -13 25 -13 29 8 57 28 38 7 43 -27 7z"/>
<path d="M845 1987 c15 -12 30 -38 35 -57 8 -33 8 -33 9 17 1 45 -1 51 -18 46
-10 -3 -22 0 -25 6 -4 6 -12 11 -17 11 -6 0 2 -10 16 -23z"/>
<path d="M2511 1986 c-28 -30 -31 -84 -7 -121 10 -15 39 -36 64 -47 66 -29 92
-55 92 -94 0 -33 -15 -51 -59 -71 -24 -10 -23 -11 14 -6 57 8 82 27 96 72 17
58 -7 94 -96 140 -42 22 -76 47 -85 63 -13 25 -13 29 8 57 28 38 7 43 -27 7z"/>
<path d="M2645 1987 c15 -12 30 -38 35 -57 8 -33 8 -33 9 17 1 45 -1 51 -18
46 -10 -3 -22 0 -25 6 -4 6 -12 11 -17 11 -6 0 2 -10 16 -23z"/>
<path d="M4131 1986 c-28 -30 -31 -84 -7 -121 10 -15 39 -36 64 -47 66 -29 92
-55 92 -94 0 -33 -15 -51 -59 -71 -24 -10 -23 -11 14 -6 57 8 82 27 96 72 17
58 -7 94 -96 140 -42 22 -76 47 -85 63 -13 25 -13 29 8 57 28 38 7 43 -27 7z"/>
<path d="M4265 1987 c15 -12 30 -38 35 -57 8 -33 8 -33 9 17 1 45 -1 51 -18
46 -10 -3 -22 0 -25 6 -4 6 -12 11 -17 11 -6 0 2 -10 16 -23z"/>
<path d="M353 1993 c16 -4 17 -18 15 -166 l-3 -161 -25 -7 c-14 -4 35 -7 108
-8 l132 -1 0 43 0 42 -18 -35 c-17 -34 -18 -35 -77 -35 l-60 0 -2 163 -3 162
53 0 c58 0 65 -4 90 -40 l17 -24 0 37 0 37 -122 -1 c-68 -1 -115 -3 -105 -6z"/>
<path d="M971 1948 c1 -42 2 -47 8 -27 19 59 29 69 76 69 l45 0 0 -139 c0
-153 -7 -187 -42 -194 -13 -2 18 -4 67 -4 50 -1 81 2 70 4 -43 11 -45 19 -45
180 l0 154 48 -3 c44 -3 48 -5 59 -38 l12 -35 0 43 1 42 -150 0 -150 0 1 -52z"/>
<path d="M1353 1993 c16 -4 17 -18 15 -166 l-3 -161 -25 -7 c-14 -4 35 -7 108
-8 l132 -1 0 43 0 42 -18 -35 c-17 -34 -18 -35 -77 -35 l-60 0 -2 163 -3 162
53 0 c58 0 65 -4 90 -40 l17 -24 0 37 0 37 -122 -1 c-68 -1 -115 -3 -105 -6z"/>
<path d="M1678 1990 c22 -9 22 -11 20 -167 l-3 -157 -25 -7 c-15 -4 4 -7 50
-7 54 -1 69 2 53 8 -21 9 -23 16 -23 90 l0 80 28 0 c45 0 73 -44 96 -152 6
-26 10 -28 53 -28 45 0 46 1 26 15 -12 8 -29 37 -38 64 -18 55 -55 101 -82
102 -12 0 -7 6 14 15 35 15 63 49 63 77 0 10 -13 32 -29 48 -29 28 -32 29
-128 28 -70 0 -91 -3 -75 -9z m161 -14 c7 -8 14 -29 17 -48 8 -47 -25 -88 -72
-88 l-34 0 0 75 0 75 39 0 c21 0 44 -6 50 -14z"/>
<path d="M2163 1993 c16 -4 17 -18 15 -166 l-3 -161 -25 -7 c-14 -4 35 -7 108
-8 l132 -1 0 43 0 42 -18 -35 c-17 -34 -18 -35 -77 -35 l-60 0 -2 163 -3 162
53 0 c58 0 65 -4 90 -40 l17 -24 0 37 0 37 -122 -1 c-68 -1 -115 -3 -105 -6z"/>
<path d="M2781 1948 c1 -42 2 -47 8 -27 19 59 29 69 76 69 l45 0 0 -139 c0
-153 -7 -187 -42 -194 -13 -2 18 -4 67 -4 50 -1 81 2 70 4 -43 11 -45 19 -45
180 l0 154 48 -3 c44 -3 48 -5 59 -38 l12 -35 0 43 1 42 -150 0 -150 0 1 -52z"/>
<path d="M3216 1846 c-65 -148 -83 -177 -116 -189 -8 -3 12 -5 45 -6 46 0 55
2 38 9 -13 5 -23 11 -23 14 0 2 13 34 30 70 l29 66 56 0 56 0 19 -46 c34 -78
35 -93 9 -103 -18 -7 -4 -10 56 -10 52 0 73 3 60 9 -32 12 -40 27 -107 185
-35 82 -68 150 -74 152 -6 2 -41 -66 -78 -151z m93 27 l21 -53 -50 0 c-28 0
-50 3 -50 7 0 20 45 112 51 106 4 -5 17 -32 28 -60z"/>
<path d="M3558 1990 c21 -9 22 -14 22 -132 0 -168 -6 -196 -39 -201 -14 -2 34
-5 107 -6 l132 -1 0 43 0 42 -18 -35 c-16 -34 -19 -35 -72 -35 l-55 0 0 168 0
167 -50 -1 c-40 0 -46 -2 -27 -9z"/>
<path d="M3903 1988 c14 -12 15 -32 10 -170 -6 -149 -7 -157 -27 -161 -12 -2
13 -4 54 -4 41 0 65 2 53 4 -29 6 -37 71 -28 219 6 93 10 114 23 117 10 3 -10
5 -42 6 -50 1 -57 -1 -43 -11z"/>
<path d="M4433 1993 c16 -4 17 -18 15 -166 l-3 -161 -25 -7 c-14 -4 35 -7 108
-8 l132 -1 0 43 0 42 -18 -35 c-17 -34 -18 -35 -77 -35 l-60 0 -2 163 -3 162
53 0 c58 0 65 -4 90 -40 l17 -24 0 37 0 37 -122 -1 c-68 -1 -115 -3 -105 -6z"/>
<path d="M530 1856 c0 -8 -6 -16 -12 -18 -9 -3 -8 -9 5 -22 16 -17 17 -16 17
18 0 20 -2 36 -5 36 -3 0 -5 -6 -5 -14z"/>
<path d="M1530 1856 c0 -8 -6 -16 -12 -18 -9 -3 -8 -9 5 -22 16 -17 17 -16 17
18 0 20 -2 36 -5 36 -3 0 -5 -6 -5 -14z"/>
<path d="M2340 1856 c0 -8 -6 -16 -12 -18 -9 -3 -8 -9 5 -22 16 -17 17 -16 17
18 0 20 -2 36 -5 36 -3 0 -5 -6 -5 -14z"/>
<path d="M4610 1856 c0 -8 -6 -16 -12 -18 -9 -3 -8 -9 5 -22 16 -17 17 -16 17
18 0 20 -2 36 -5 36 -3 0 -5 -6 -5 -14z"/>
<path d="M671 1701 c-1 -45 1 -52 13 -42 11 9 20 10 36 1 12 -6 29 -9 38 -7
13 4 12 5 -4 6 -24 1 -53 30 -71 69 -11 25 -11 23 -12 -27z"/>
<path d="M2471 1701 c-1 -45 1 -52 13 -42 11 9 20 10 36 1 12 -6 29 -9 38 -7
13 4 12 5 -4 6 -24 1 -53 30 -71 69 -11 25 -11 23 -12 -27z"/>
<path d="M4091 1701 c-1 -45 1 -52 13 -42 11 9 20 10 36 1 12 -6 29 -9 38 -7
13 4 12 5 -4 6 -24 1 -53 30 -71 69 -11 25 -11 23 -12 -27z"/>
</g>
</svg>
