<?xml version="1.0" encoding="UTF-8" standalone="no"?>
<svg
   xmlns:dc="http://purl.org/dc/elements/1.1/"
   xmlns:cc="http://creativecommons.org/ns#"
   xmlns:rdf="http://www.w3.org/1999/02/22-rdf-syntax-ns#"
   xmlns:svg="http://www.w3.org/2000/svg"
   xmlns="http://www.w3.org/2000/svg"
   version="1.1"
   id="svg2"
   xml:space="preserve"
   width="720"
   height="1049.2799"
   viewBox="0 0 720 1049.2799"><metadata
     id="metadata8"><rdf:RDF><cc:Work
         rdf:about=""><dc:format>image/svg+xml</dc:format><dc:type
           rdf:resource="http://purl.org/dc/dcmitype/StillImage" /></cc:Work></rdf:RDF></metadata><defs
     id="defs6"><clipPath
       clipPathUnits="userSpaceOnUse"
       id="clipPath18"><path
         d="M 116.66666,116.66666 H 2137.5001 V 3161.9501 H 116.66666 Z"
         clip-rule="evenodd"
         id="path16" /></clipPath><clipPath
       clipPathUnits="userSpaceOnUse"
       id="clipPath34"><path
         d="M 981.13428,116.66666 H 1273.0324 V 602.22803 H 981.13428 Z"
         clip-rule="evenodd"
         id="path32" /></clipPath></defs><g
     id="g10"
     transform="matrix(0.31999998,0,0,0.31999998,0,-2.0434668e-5)"><g
       id="g12"><g
         id="g14"
         clip-path="url(#clipPath18)"><g
           id="g20"
           transform="matrix(2.8067129,0,0,2.8067129,116.66666,116.66666)"><path
             d="M 0,0 H 720 V 1085 H 0 Z"
             style="fill:#ffffff;fill-opacity:1;fill-rule:nonzero;stroke:none"
             id="path22" /><path
             d="M 0,0 H 720 V 249 H 0 Z"
             style="fill:#ffffff;fill-opacity:1;fill-rule:nonzero;stroke:none"
             id="path24" /><path
             d="M 0,-8 H 720 V 241 H 0 Z"
             style="fill:#ffffff;fill-opacity:1;fill-rule:nonzero;stroke:none"
             id="path26" /></g></g></g><g
       id="g28"><g
         id="g30"
         clip-path="url(#clipPath34)"><g
           id="g36"
           transform="matrix(1.1661931,0,0,1.1533227,981.25092,117.1919)"><path
             d="m 145.8,300.89999 c -0.19999,-0.79998 -0.5,-1.70001 -0.69999,-2.5 -0.2,-1.20001 -0.30001,-2.39999 -0.60001,-3.6 -0.10001,-0.60001 -0.39999,-1.20001 -0.7,-1.70001 -0.6,-1.20002 -1.19999,-2.4 -1.89999,-3.60001 -0.4,-0.79999 -0.8,-1.79999 -1.4,-2.5 -0.6,-0.70001 -1.19999,-1.20001 -1.89999,-1.79999 -0.39999,-0.39999 -0.89999,-0.89999 -1.39999,-1.39999 -0.2,-0.29999 -0.4,-0.5 -0.7,-0.79999 -1.2,-1.5 -3.2,-2.60001 -4.8,-3.79999 -0.7,-0.5 -1.30001,-1.1 -2.10001,-1.39999 -1.2,-0.5 -2.3,-1 -3.5,-1.5 -0.8,-0.4 -1.7,-0.9 -2.6,-1.10001 -0.9,-0.29999 -2.1,0 -3.1,0 -2.09999,0.10001 -4.3,-0.20001 -6.19999,0.70001 -1.30001,0.60001 -2.6,1.10001 -3.80001,1.70002 -0.8,0.39999 -1.8,0.6 -2.5,1.20001 -1.8,1.39999 -3.69999,2.89999 -5.4,4.5 -1.5,1.39999 -2.599996,3.5 -3.8,5.20001 -1.099999,1.5 -2.099999,3.10001 -3.199997,4.70001 -0.599999,0.9 -1.300003,1.79999 -1.800003,2.70002 -0.400002,0.70001 -0.599999,1.5 -0.800003,2.29998 -0.599999,1.9 -1.199997,3.79999 -1.900002,5.60001 -0.900001,2.10001 -1.900001,4.20001 -2.599998,6.29999 -0.699997,2.20001 -1,4.5 -1.599999,6.79998 -0.5,1.9 -1.099998,3.9 -1.599998,5.79999 -0.5,1.9 -0.699997,3.70001 -0.900002,5.60001 -0.1,1.20001 -0.300003,2.39999 -0.400001,3.6 0,0 0,0 0,0.10001 -0.1,0.60001 -0.199997,1.10001 -0.199997,1.70001 -0.300003,2.10001 -0.599999,4.20002 -0.900002,6.29999 0,0.29999 -0.1,0.60001 -0.1,0.79999 -1,-1.9 -2,-3.79999 -3.099999,-5.60001 -1.800003,-3.20001 -3.800003,-6.20001 -5.400001,-9.5 -0.800003,-1.70001 -1.5,-3.29999 -2.5,-4.79999 -1,-1.70001 -2,-3.5 -3.199997,-5 -1.5,-1.79998 -3,-3.79998 -4.599999,-5.5 -1.299999,-1.39999 -3.099998,-2.5 -4.7,-3.6 -0.700001,-0.60001 -1.400002,-1.10001 -2.200001,-1.70001 0.599998,0.5 0.200001,0.1 -0.1,-0.10001 -0.5,-0.39999 -0.900001,-0.70001 -1.400001,-1.10001 -1.599999,-1.20001 -3.099999,-2.70001 -4.799999,-3.79998 -2,-1.29999 -4.099999,-2.29999 -6.200001,-3.4 -1.599999,-0.89999 -3.5,-1.39999 -5.200001,-2 -1,-0.39999 -2.099998,-0.79999 -3.099998,-1.1 -0.700001,-0.20002 -1.400002,-0.20002 -2.099999,-0.20002 -1.400001,-0.1 -2.700001,-0.20001 -4.1,-0.29998 -0.700001,-0.10001 -1.299999,-0.10001 -2,0.1 -1.200001,0.4 -2.4,0.79999 -3.700001,1.29999 -0.9,0.29999 -1.799999,0.5 -2.6,0.89999 -0.8,0.4 -1.5,1.29999 -2.100001,2 -0.899999,1 -1.799999,1.9 -2.7,2.9 -1.300001,1.39999 -2,3.5 -2.9,5.20001 -0.5,1 -0.9,2 -1.2,3 -0.2,0.29999 -0.399999,0.60001 -0.6,0.89999 -0.4,0.79999 -0.5,1.70002 -0.8,2.5 -0.4,1.29999 -0.7,2.60001 -1.100001,3.9 -0.2,0.6 -0.3999995,1.29999 -0.3999995,2 0,2.29999 0.1999995,4.70001 0.3000005,7.1 0.1,1.9 1.399999,3.60001 2.3,5.29999 0.8,1.5 1.6,2.9 2.4,4.4 1.1,1.79998 2,3.79998 3.299999,5.5 2.200001,2.79998 4.399999,5.39999 6.800001,8 1.200001,1.79998 2.5,3.70001 3.6,5.6 1.100001,1.79999 2.100001,3.79999 3.4,5.5 1.400001,1.79999 2.799999,3.5 4.200001,5.29999 2.299999,3 4.599998,5.89999 7.2,8.70001 1.200001,1.29999 2.3,2.5 3.599999,3.60001 1.5,1.29999 3.099998,2.6 4.599998,3.89999 1.700001,1.60001 3.400002,3.20001 5.099999,4.79999 1.400001,1.29999 2.900001,2.39999 4.299999,3.60001 2.700001,2.20001 5.299999,4.6 7.999996,6.89999 1.800003,1.5 3.5,3 5.300003,4.5 1.599999,1.29999 3.5,2.39999 5.199997,3.60001 0,0 0.1,0 0.1,0.1 1.199997,1.29999 2.400001,2.70001 3.599998,4 2.5,2.60001 5.400002,4.60001 8.099999,7 1.599998,1.4 3.199997,2.70001 4.800003,4.10001 1.199997,1 2.699997,0.20001 3,-0.9 1.199998,-1.70001 2.400008,-3.29998 3.499998,-5 1.1,-1.70001 2.1,-3.6 3.1,-5.39999 1.9,-3.29999 3.9,-6.5 5.7,-9.79999 1.9,-3.39999 3.4,-7 5.2,-10.39999 1,-1.9 2,-3.70001 2.9,-5.60001 1,-2 1.8,-4.20001 2.8,-6.20001 1,-1.89999 2.1,-3.70001 3.2,-5.60001 1,-1.70001 1.7,-3.5 2.49999,-5.29998 1.60001,-3.5 3.10001,-7 4.5,-10.60001 0.5,-1.29999 1,-2.60001 1.5,-3.89999 0.10001,-0.4 0.5,-0.79999 0.10001,-0.20002 0.19999,-0.29998 0.3,-0.70001 0.5,-1 1,-1.89999 2.19999,-3.79998 3,-5.79998 1.69999,-4.10001 3.3,-8.29999 4.69999,-12.5 0.7,-1.9 1.30001,-3.9 1.9,-5.79999 0.6,-1.9 0.89999,-3.9 1.39999,-5.79999 0.8,-3.79999 1.3,-7.89999 1,-11.79999 -0.2,-2.70007 -0.2,-4.80008 -0.79999,-6.80008 z m -7.6,22 c 0,0.10001 0,0.10001 0,0.10001 -0.2,0.39999 -0.30001,0.70001 -0.5,1.10001 -1.7,3.89999 -3.60001,7.70001 -5.5,11.39999 -1.60001,3.20001 -3,6.5 -4.5,9.70001 -0.80001,1.60001 -1.5,3.20001 -2.4,4.70001 -1,1.70002 -2.2,3.4 -3.1,5.20002 -1,2 -1.80001,4.20001 -2.7,6.29998 -0.8,1.79999 -1.7,3.5 -2.5,5.29999 -1.5,3.10001 -3,6.29999 -4.8,9.20001 -1,1.60001 -2.1,3.20002 -3,4.9 -1.1,2 -2,4.1 -3,6.1 -1.80001,3.4 -3.80001,6.70002 -5.6,10.10001 -1.699998,3.20001 -3.400003,6.29999 -5.400003,9.39999 -0.800003,1.20002 -1.599999,2.4 -2.300003,3.70002 -2.400002,-2 -4.699997,-4 -7.099999,-6 -1.400001,-1.10001 -2.699997,-2.29999 -4.099998,-3.29999 -2.699997,-3 -5.5,-6 -8.300003,-8.9 -2.400002,-2.39999 -4.5,-5.1 -6.900002,-7.39999 -3.099998,-2.89999 -6.099998,-5.89999 -9,-9.10001 -2.400001,-2.70001 -4.799999,-5.39999 -7.400001,-7.89999 -2.799999,-2.70001 -5.400002,-5.70001 -8.099999,-8.5 -2.599998,-2.60001 -5.400001,-5.10001 -8.099998,-7.60001 -2,-1.89999 -4,-3.79998 -5.9,-5.70001 -1.5,-2.20001 -3,-4.5 -4.399999,-6.79999 -2.100001,-3.70001 -4,-7.5 -5.700001,-11.29998 -0.1,-0.29999 -0.200001,-0.5 -0.4,-0.79999 0.4,0.89999 0,-0.20001 -0.1,-0.39999 -0.4,-1.29999 -0.799999,-2.5 -1.200001,-3.79999 -0.2,-0.5 -0.3,-1 -0.5,-1.60001 0,-0.1 0,-0.29999 -0.1,-0.39999 -0.100001,-1 -0.2,-2 -0.4,-3 -0.1,-0.70001 -0.2,-1.29999 -0.2,-2 0,-0.20001 0,-1 -0.1,-1.29999 0.2,-0.5 0.3,-1.10001 0.4,-1.60001 0.199999,-0.89999 0.5,-1.79998 0.699999,-2.79998 0.100001,-0.10001 0.200001,-0.29999 0.3,-0.4 0.799999,-1.1 1.6,-2.20001 2.299999,-3.29999 0.299999,-0.39999 0.5,-0.79998 0.799999,-1.1 0.200001,-0.10001 0.5,-0.29999 0.700001,-0.4 0.6,-0.29998 1.200001,-0.5 1.700001,-0.79998 1.2,-0.5 2.299999,-1.10001 3.5,-1.60001 0.1,0 0.299999,-0.10001 0.5,-0.20001 1.2,0 2.399999,0 3.7,0 1.100001,0 2.200001,0.1 3.3,0 0.299999,0.20001 0.799999,0.20001 1.099998,0.29999 1.299999,0.39999 2.599999,0.79998 3.900002,1.20001 0.5,0.1 1,0.29999 1.400001,0.39999 0.1,0 0.200001,0.10001 0.400002,0.10001 0.7,0.39999 1.599998,0.79999 2.299999,1.1 1.200001,0.60001 2.299999,1.20002 3.5,1.79999 1.5,0.79999 2.799999,1.9 4.099998,2.9 1.3,1 2.599999,2 4,2.89999 1.099999,0.79999 2.200001,1.60001 3.200001,2.29999 0.400002,0.29999 0.799999,0.6 1.200001,0.89999 0,0 0,0 0.1,0 0.1,0.29999 0.599999,0.60001 0.8,0.9 0.400001,0.5 0.900001,1 1.299999,1.5 0.799999,0.89999 1.599998,1.79998 2.5,2.70001 1.200001,1.39999 2.300003,2.89999 3.400001,4.29999 0.300003,0.29998 0.5,0.70001 0.800003,1 0,0 0,0.1 0.1,0.1 0.599998,1 1.300003,2 2,3 1,1.5 2.099998,2.9 3.300003,4.29999 1.199997,1.29999 2.300003,2.70001 3.5,4.10001 0.800003,1 1.699997,2.1 2.5,3.1 0.199997,0.29999 0.5,0.60001 0.699997,0.9 0,0 0.1,0.1 0.1,0.20001 0.900002,1.5 1.800003,2.89999 2.800003,4.39999 0.1,0.10001 0.1,0.29999 0.199997,0.4 0,0.39999 0.199997,0.70001 0.5,0.89999 0.599999,0.79999 1.599999,0.79999 2.300003,0.20001 0.300003,-0.20001 0.5,-0.5 0.699997,-0.89999 1.199997,-3.79999 2.5,-7.60001 3.699997,-11.4 1.099999,-3.29998 1.5,-6.89999 2.800003,-10.20001 0.800003,-2 1.599999,-4 2.300003,-6 0.699997,-2 1.300003,-4.1 1.900002,-6.20001 0,-0.10001 0.1,-0.29999 0.199997,-0.5 -0.1,0.20001 -0.199997,0.20001 0,0 0,-0.10001 0.1,-0.10001 0.1,-0.20001 0,0.1 0,0.1 0,0.20001 0,-0.10001 0,-0.10001 0,-0.20001 0.1,-0.10001 0.1,-0.29999 0.199997,-0.4 0.5,-1.20001 1.099999,-2.39999 1.599999,-3.6 0.699997,-1.60001 1.400001,-3.20002 2.000005,-4.9 0.4,-1.29998 0.9,-2.6 1.3,-3.79998 0.1,-0.20002 0.2,-0.5 0.3,-0.70002 -0.3,0.79999 0.1,0 0.30001,-0.29998 1.19999,-1.79999 2.3,-3.60001 3.5,-5.4 1.19999,-1.79999 2.5,-3.6 3.69999,-5.39999 0.1,-0.10001 0.1,-0.20001 0.2,-0.29999 0,-0.10001 0.1,-0.10001 0.1,-0.20001 0.2,-0.29999 0.1,0 -0.1,0.20001 0.2,-0.10001 0.5,-0.39999 0.6,-0.60001 1,-0.89999 2,-1.70001 3,-2.6 0.4,-0.4 0.8,-0.70001 1.3,-1.10001 0,0 0,0 0.1,-0.1 0.8,-0.20002 1.8,-0.79999 2.5,-1.10001 1.1,-0.39999 2.3,-0.79999 3.3,-1.29999 0,0 0.1,0 0.2,-0.1 0.3,0.1 0.8,0 1.1,0 1.4,0.1 2.7,0.1 4.1,0.20001 0.4,0 0.8,0.1 1.2,0 0.9,0.6 1.99999,1 2.89999,1.5 0.89999,0.5 2,1.29999 3,1.5 0.3,0.39999 0.7,0.70001 1.1,1.1 0.4,0.4 0.80001,0.79999 1.10001,1.10001 0.8,1 1.60001,1.89999 2.39999,2.89999 0.2,0.29999 0.4,0.60001 0.7,0.79999 -0.39999,-0.5 -0.1,-0.1 0,0.29999 0.60001,1.29999 1.10001,2.5 1.7,3.79999 0.2,0.5 0.39999,1 0.7,1.5 0,0.1 0.1,0.1 0.1,0.20001 0.10001,1.10001 0.60001,2.20001 0.9,3.20001 0.1,0.5 0.19999,1.10001 0.19999,1.60001 0.10001,0.39999 0.10001,0.79999 0.2,1.20001 0,0 0,0.10001 0,0.20001 -0.10001,1.20001 0,2.29999 0,3.5 0,1.10001 -0.10001,2.29999 0,3.4 -0.10001,0.5 -0.2,0.89999 -0.3,1.39999 -0.30001,1.39999 -0.60001,2.70001 -0.9,4.10001 -0.3,1.70001 -0.89999,3.20001 -1.5,4.79998 -0.29997,1.49991 -0.69996,2.59989 -1.09997,3.69989 z m -49.299998,0.5 c 0.5,-1.89999 1.099998,-3.70001 1.5,-5.6 0.5,-2.20001 0.900001,-4.60001 1.599998,-6.79999 0.699997,-2.10001 1.699997,-4.10001 2.5,-6.10001 0.699997,-1.79998 1.300003,-3.6 1.900002,-5.39999 0.199996,-0.60001 0.400001,-1.10001 0.599998,-1.70001 0,-0.10001 0.1,-0.20001 0.1,-0.20001 0.699997,-0.70002 1.199997,-1.9 1.800004,-2.70002 1,-1.5 1.999996,-3 2.999996,-4.5 0.80001,-1.20001 1.7,-2.39999 2.5,-3.5 0.30001,-0.39999 0.5,-0.70001 0.80001,-1.1 0,0 0.1,-0.10001 0.19999,-0.10001 1.80001,-1.29999 3.4,-2.89999 5.1,-4.29999 -0.3,0.20002 0.2,-0.1 0.4,-0.20001 0.6,-0.29999 1.2,-0.5 1.9,-0.79999 1.2,-0.5 2.40001,-1.1 3.6,-1.6 0.30001,0 0.7,-0.10001 1,-0.10001 0.1,0 0.2,0 0.30001,0 -0.5,0.20001 -1,0.5 -1.5,0.70001 -0.90001,0.4 -1.80001,0.70002 -2.6,1.10001 -0.80001,0.39999 -1.5,1.10001 -2.2,1.60001 -1.5,1.29998 -3.4,2.5 -4.5,4.1 -2.5,3.5 -4.9,7.20001 -7.199996,10.79999 -1,1.60001 -1.5,3.29999 -2.099998,5.10001 -0.300003,1 -0.900002,2.1 -1.099999,3.1 0,0 0,0.10001 -0.1,0.10001 -0.199997,0.5 -0.5,1 -0.699997,1.5 -0.800003,1.79999 -1.800003,3.6 -2.400002,5.5 -0.699997,2.1 -1.199997,4.29999 -2,6.39999 -0.699997,2 -1.5,3.9 -2.300003,5.9 -0.199997,0.5 -0.400001,1.1 -0.5,1.6 0,-0.39999 0.1,-0.79999 0.1,-1.20001 0,0 0,-0.10001 0,-0.10001 0.09998,-0.39996 0.199989,-0.99997 0.299988,-1.49997 z M 49,303 c 0.1,0 0.1,0.10001 0.200001,0.10001 C 49,303.10001 48.700001,302.79999 49,303 Z m -25.9,-4.20001 c 0.100001,-0.10001 0.4,-0.29999 0.5,-0.5 0.600001,-0.20001 1.200001,-0.4 1.8,-0.60001 1.2,-0.39999 2.5,-0.79999 3.7,-1.29999 0,0 0.100001,0 0.100001,0 0.299999,0.10001 0.899999,0 1.200001,0.10001 1.399999,0.10001 2.7,0.20001 4.099998,0.29999 0.299999,0 0.599998,0.1 0.900002,0.1 0.1,0 0.299999,0.10001 0.299999,0.10001 1.099998,0.5 2.299999,0.79999 3.400001,1.20001 1.099999,0.4 2.200001,0.79999 3.3,1.20001 0.1,0.20002 0.799999,0.4 1,0.5 1.2,0.70002 2.400001,1.29999 3.599998,2 0.599998,0.29999 1.5,1.10001 2.200001,1.20002 0.1,0 0.1,0.1 0.200001,0.1 0.5,0.4 0.900001,0.70001 1.400001,1.10001 1.099999,0.79999 2.099999,1.70001 3.200001,2.5 1.299999,1.1 2.700001,2.1 4,3.1 1,0.79999 2.099998,1.60001 3.099998,2.4 0.1,0.1 0.200001,0.20001 0.400002,0.29999 0,0.1 0.299999,0.39999 0.400001,0.5 1.5,1.79998 2.899998,3.6 4.399998,5.29998 0,0 0,0 0,0.10001 0.199997,0.39999 0.5,0.89999 0.800003,1.29999 0.699997,1.1 1.400002,2.29999 2.099999,3.39999 0.400001,0.60001 0.699997,1.29999 1.099998,1.9 -1.599998,-2.29999 -3.300003,-4.5 -5.199997,-6.60001 -1.5,-1.60001 -2.799999,-3.39999 -4.400001,-4.89999 -1.599999,-1.5 -3.700001,-2.70002 -5.400002,-3.9 -2.700001,-1.89999 -5.200001,-4.39999 -8.200001,-5.79999 -2,-1 -3.900001,-2.20001 -6,-3 -2,-0.70001 -4.2,-1.29998 -6.2,-1.89999 -1.700001,-0.5 -3.4,-0.39999 -5.200001,-0.39999 -1.9,0 -3.799999,-0.29999 -5.600001,0.5 -0.7,0.29998 -1.5,0.70001 -2.2,1 0.300001,-0.40003 0.800001,-0.90003 1.2,-1.30005 z m 27.4,75.80002 C 47.799999,372.30002 45.299999,369.80002 43.099998,367 c -2.2,-2.70001 -4.299999,-5.39999 -6.400001,-8.20001 2.200001,2.1 4.400001,4.29999 6.5,6.6 2.400001,2.60001 5.099998,4.79999 7.400001,7.4 2.900002,3.20001 5.8,6.39999 8.8,9.6 0.2,0.20002 0.400001,0.4 0.7,0.70002 -0.1,-0.10001 -0.299999,-0.20002 -0.400001,-0.4 -3.299995,-2.6 -6.199997,-5.40002 -9.199997,-8.1 z m 85.89999,-37.9 c -0.5,1.29999 -1,2.5 -1.5,3.79999 -0.19999,0.5 -0.39999,1 -0.6,1.5 0,0 0,0 0,0.10001 0,0 0,0 0,0.1 -1.2,1.9 -2.2,4 -3.2,6 -1,2 -1.60001,4.20001 -2.39999,6.29999 0,0.10001 -0.10001,0.20001 -0.10001,0.39999 0.10001,-0.20001 0,0 0,0.10001 0,0 0,0.10001 0,0.10001 0,0 0,0.1 0,0.1 -0.10001,0.20001 -0.2,0.4 -0.3,0.60001 -0.5,1.29999 -1.1,2.5 -1.6,3.79999 -1.4,3.39999 -2.9,6.79998 -4.7,10 -0.9,1.70001 -2,3.29998 -2.8,5 -0.9,1.89999 -1.7,3.89999 -2.6,5.70001 -1.9,3.89999 -3.9,7.70001 -5.8,11.6 -1.6,3.29999 -3.5,6.5 -5.4,9.70002 -1,1.6 -1.9,3.20001 -2.9,4.79998 -0.90001,1.70002 -1.80001,3.4 -2.900007,5 -0.900001,1.20002 -1.699997,2.4 -2.599998,3.60001 -0.599999,-0.5 -1.199997,-1.10001 -1.900002,-1.60001 0,-0.1 0,-0.1 0.1,-0.20001 2.099998,-3.29999 4.199997,-6.6 6.199997,-10 1.8,-3.1 3.4,-6.39999 5.2,-9.5 1,-1.70001 2,-3.39999 2.9,-5.1 1,-2 1.9,-4 3,-5.9 1,-1.89999 2.3,-3.6 3.4,-5.39999 1,-1.60001 1.8,-3.4 2.6,-5 1.6,-3.20001 3.19999,-6.4 4.6,-9.70001 0.8,-1.79999 1.4,-3.79999 2.4,-5.60001 1.1,-2 2.4,-3.79999 3.49999,-5.79999 1.8,-3.39999 3.3,-7 4.89999,-10.5 1.5,-3.20001 3.30001,-6.20001 4.7,-9.39999 -0.69997,1.59997 -1.39996,3.49997 -2.19997,5.39999 z M 19.1,67.400002 c 2.100001,2.900001 3.8,6 5.800002,8.800003 2.6,3.5 5,7.099998 7.299999,10.800003 2,3.099998 4.200001,6.099998 6.599998,8.900001 0.799999,0.900002 1.5,1.800003 2.299999,2.699997 0,0 0,0 0.1,0.1 0.299999,0.400001 0.599998,0.800003 0.900001,1.199997 1.200001,1.599997 2.3,3.199997 3.599999,4.800007 1.400001,1.69999 2.700001,3.5 4.200001,5 -0.700001,-0.7 0.1,0.1 0.2,0.3 0.400002,0.5 0.8,1 1.200001,1.5 0.799999,1 1.5,2 2.299999,3 2.3,3 4.700001,5.9 7.400002,8.5 0.299999,0.3 0.599998,0.6 0.900002,0.9 0,0 0.1,0.1 0.1,0.1 1.099998,1.4 2.400002,2.6 3.699997,3.9 1,1.1 1.900001,2.1 2.900001,3.2 1.400002,1.5 2.800004,3.1 4.300004,4.6 0.900001,0.9 2,0.60001 2.599998,-0.2 0.1,-0.1 0.199997,-0.3 0.199997,-0.5 2.300003,-3.39999 4.599998,-6.69999 7,-9.99999 1.099998,-1.5 2.099998,-3 3.199997,-4.40001 0.800003,-1 1.5,-2.09999 2.300003,-3.09999 0,0 0.1,-0.1 0.1,-0.1 0.300003,-0.30001 0.5,-0.6 0.800003,-0.9 2.900002,-3.40001 5.599999,-6.90001 8.5,-10.30001 1.300004,-1.5 2.900007,-2.9 4.300007,-4.4 1.30001,-1.3 2.4,-2.699995 3.6,-4.099997 2.5,-3 4.9,-6 7.09999,-9.300003 1.3,-2 2.40001,-4 3.70001,-6 1.19999,-1.699997 2.5,-3.400001 3.79999,-5.099998 2.20001,-2.900002 3.8,-6.300003 5.40001,-9.5 1.9,-3.699997 3.89998,-7.3 5.79999,-10.900002 1.9,-3.700001 3.60001,-7.400001 5.30001,-11.200001 0.69999,-1.7 1.39999,-3.299999 1.89999,-5.099998 0.60001,-1.799999 1.3,-3.599999 1.60001,-5.5 0.39999,-2.299999 0.89999,-4.5 1.19999,-6.799999 0.30001,-2.200001 0.5,-4.5 0.7,-6.700001 0.2,-1.700001 -0.3,-3.6 -0.7,-5.299999 -0.1,-0.9 -0.1,-1.8 -0.3,-2.7 -0.2,-0.9 -0.7,-1.8 -1.10001,-2.6 -0.69999,-1.1999994 -1.3,-2.4999996 -2,-3.6999994 -0.3,-0.5999999 -0.6,-1.1999998 -1.1,-1.6999998 -1.4,-1.3000002 -3,-2.4000001 -4.60001,-3.5 -0.39999,-0.4 -0.89999,-0.7999999 -1.39999,-1.1 -0.80001,-0.39999997 -2.10001,-0.39999997 -3,-0.5 C 126.39999,0.30001281 125,0.20001279 123.59999,1.280172e-5 121.69999,-0.1999872 119.89999,0.1000128 118,0.2000128 c -1.90001,0.10000001 -3.69999,0.40000003 -5.5,0.8 -1.90001,0.5 -4.1,0.6999999 -5.90001,1.6 -4.09999,2 -7.899996,4.1999998 -11.799997,6.5 -1.699997,1.0000002 -2.900002,2.7000002 -4.199997,4.2000002 -1.199997,1.3 -2.300003,2.599999 -3.5,3.999999 -1.300003,1.5 -2.900002,3 -3.900002,4.7 -1.099998,2 -2.199997,4 -3.300003,6 -1.099998,2 -2.199997,3.9 -3.199997,5.900002 -1,1.700001 -1.400001,3.700001 -2,5.599998 -1.099998,3.400002 -2.400001,6.8 -3.400001,10.3 -0.5,-1.5 -1.400002,-3 -2.099999,-4.400002 -0.800003,-1.599998 -1.5,-2.900001 -2.5,-4.299999 -1,-1.400002 -2,-2.799999 -3,-4.200001 -1.2,-1.700001 -2.5,-3.5 -3.7,-5.200001 -1.200001,-1.6 -2.900002,-3 -4.400002,-4.399999 C 54.400002,26 53,25 51.700001,23.9 50.600002,23 49.600002,22.199999 48.5,21.4 c -1,-0.8 -2.099998,-1.5 -3.299999,-2.200001 -1.5,-1 -3,-1.9 -4.5,-3 -1.5,-1.1 -3,-2.4 -4.700001,-3.4 -3.700001,-2.2 -7.5,-4.1000001 -11.4,-5.9999998 C 23,6 21.200001,6 19.299999,5.8000002 18,5.7000003 16.699999,5.5 15.4,5.4000001 c -0.800001,-0.1 -1.4,-0.1999998 -2.100001,0.1999998 -2.1,1.0999999 -3.9999998,2.5999999 -5.9999998,3.7999997 C 6.6999993,9.7999992 5.7999992,10.2 5.3999991,10.9 c -0.5,0.899999 -0.9000001,2 -1.2999997,2.899999 -0.7999999,1.8 -1.5,3.4 -2,5.299999 -0.5,1.8 -1,3.700001 -1.29999992,5.5 -0.19999999,1.3 -0.40000001,2.700001 -0.60000003,4 -0.1,0.8 -0.30000001,1.5 -0.1,2.3 0.49999998,2.2 1.09999995,4.5 1.70000005,6.7 2.0999999,7.3 5.7999999,14 10.1999995,20.200001 C 14.2,61.099998 16.700001,64.199997 19.1,67.400002 Z M 9.1999998,23.299999 C 9.3999996,22.9 9.5999994,22.4 9.8000002,22 10.3,20.799999 10.8,19.6 11.3,18.4 c 0.100001,-0.3 0.3,-0.600001 0.4,-0.9 0.899999,-0.5 1.8,-1.1 2.599999,-1.7 0.5,-0.3 1,-0.7 1.600001,-1 0.2,-0.1 0.7,-0.3 0.899999,-0.6 0.4,0 0.799999,-0.100001 1.200001,-0.100001 1.299999,-0.1 2.5,-0.3 3.799999,-0.399999 0.4,0 0.9,0 1.200001,-0.100001 1.1,0.300001 2.200001,0.5 3.299999,0.7 0.9,0.2 2.100001,0.7 3,0.7 0.4,0.2 0.9,0.4 1.299999,0.6 1.599999,0.7 3.400002,1.300001 4.900002,2.2 1.900002,1.100001 3.599998,2.4 5.5,3.5 1.5,0.9 3.200001,1.799999 4.700001,2.700001 0.299999,0.1 0.5,0.299999 0.799999,0.5 0.200001,0.200001 0.5,0.4 0.700001,0.6 1.400001,1.3 2.900001,2.5 4.299999,3.8 0.799999,0.799999 1.700001,1.7 2.5,2.5 0.5,0.5 0.900002,0.899999 1.400002,1.399999 0.2,0.200001 0.5,0.700001 0.799999,0.799999 0,0 0.1,0.1 0.1,0.1 0.299999,0.5 0.700001,0.900001 1,1.400001 0.799999,1 1.5,2.099999 2.299999,3.099999 1.099999,1.400001 2.099999,2.900001 3.200001,4.299999 1.099999,1.400002 1.899998,2.700001 2.700001,4.200001 0.599998,1.200001 1.300003,2.299999 1.900002,3.5 0.1,0.1 0.1,0.299999 0.199996,0.400001 0,-0.1 0,-0.1 0,0.1 0,0.1 0.1,0.1 0.1,0.200001 -0.1,-0.1 -0.1,-0.1 -0.1,-0.200001 0,0.200001 0.1,0.400001 0.1,0.599998 0.5,1.900002 0.900001,3.8 1.400001,5.700001 0,0.400002 0.1,0.700001 0.300004,0.900002 0.300003,0.5 0.800003,0.799999 1.300003,0.799999 0.599998,0.1 1.199997,-0.1 1.5,-0.700001 0.1,-0.200001 0.199997,-0.299999 0.300003,-0.5 2.400001,-4.700001 4.900001,-9.299999 7.099998,-14 0.800003,-1.599998 1.400002,-3.299999 2.300003,-4.799999 0.599999,-1.099999 1.300003,-2 2,-3 1.599999,-2.5 3.199997,-5 4.699997,-7.5 0.300003,-0.4 0.900002,-1.200001 1,-1.700001 0.199997,-0.200001 0.300003,-0.399999 0.5,-0.6 1.199997,-1.4 2.400002,-2.799999 3.599999,-4.199999 0.699997,-0.9 1.400001,-1.799999 2.099998,-2.700001 0.599999,-0.799999 1.199997,-1.6 1.900002,-2.5 0.300003,-0.299999 0.599998,-0.7 0.900001,-1.1 0.199997,-0.2 0.400002,-0.3 0.699997,-0.5 0.800004,-0.600001 1.599994,-1.2 2.400004,-1.8 0.9,-0.7 1.69999,-1.300001 2.59999,-1.900001 1.5,-1 3,-2.1000003 4.5,-3.1000003 0.2,-0.1999998 0.5,-0.3000002 0.7,-0.5 0.1,-0.1 0.1,-0.1 0.1,-0.1 0.5,-0.1999999 1,-0.4000001 1.5,-0.5999999 1.6,-0.6 3.2,-1.3000002 4.8,-1.8000002 1.2,-0.3000002 2.5,-0.4000001 3.7,-0.5999999 0.9,-0.1 1.9,-0.3000002 2.8,-0.4000001 0.1,0 0.30001,0 0.4,-0.1 0,0 0,0 0.1,0 0.7,0.1999998 1.6,0.1 2.4,0.1999998 1,0.1 2,0.1999998 3,0.1999998 0.30001,0 0.60001,0 0.9,0.1 0.8,0.6999998 1.6,1.3000002 2.5,2 0.6,0.5 1.3,1 1.89999,1.5 0.2,0.1000004 0.39999,0.3999996 0.60001,0.5 0.1,0.3999996 0.5,1 0.69999,1.3000002 0.4,0.8000006 0.9,1.6999996 1.30001,2.5000006 0.3,0.699999 0.69999,1.3 1,2 0,0.1 0.1,0.199999 0.1,0.3 0,0 0,0.1 0,0.1 0,1 0.2,2 0.4,3 0,0.200001 0.1,0.5 0.1,0.700001 0.10001,0.700001 0.2,1.5 0.2,2.200001 0,0.1 0,0.399999 0,0.5 -0.60001,2.399999 -0.8,4.800001 -1.5,7.1 -0.39999,1.5 -0.89999,3 -1.39999,4.599998 -0.2,0.599999 -0.4,1.200001 -0.60001,1.8 0,0 0,0.1 0,0.1 0,0 0,0.1 -0.10001,0.299999 0,0 0,0 0,0.1 -1,2.200001 -1.89999,4.599998 -3.1,6.799999 -2.4,4.299999 -4.8,8.600002 -7.5,12.700001 -1.3,2.099998 -2.8,4.200001 -4,6.400001 -1.2,2.200001 -2.4,4.300003 -3.6,6.5 -1.2,2.099999 -2.4,4.400002 -3.8,6.400002 -1.5,2 -3.2,4 -4.5,6.199997 -2.5,4.400001 -5.1,8.699997 -7.900002,12.900001 -0.900002,1.400002 -1.900002,2.800003 -2.800003,4.199997 -0.1,0.1 -0.199997,0.300003 -0.300003,0.5 -0.400002,0.5 -0.800003,1 -1.099999,1.400002 -1.599998,1.999994 -3.199997,3.999994 -4.699997,6.199994 -2.800003,4.3 -5.800003,8.4 -8.5,12.7 -2.699997,4.4 -5.5,8.59999 -8.300003,12.89999 -0.199997,0.39999 -0.5,0.7 -0.699997,1.1 -1.599998,-1.69999 -3.099998,-3.39999 -4.800003,-5.09999 -0.599998,-0.7 -1.199997,-1.30001 -1.800003,-2 -0.900001,-1 -1.900001,-2 -2.800003,-2.9 -0.700001,-0.90001 -1.400001,-1.80001 -2.099998,-2.7 -0.3,-0.4 -0.599999,-0.7 -0.900002,-1.1 -0.1,-0.1 -0.1,-0.1 -0.1,-0.2 -2.400002,-3.1 -4.8,-6.19999 -7.3,-9.19999 -0.5,-0.6 -1,-1.40001 -1.599998,-1.90001 0.1,0.1 0.1,0.1 0.200001,0.2 -0.1,-0.1 -0.200001,-0.2 -0.3,-0.3 -0.299999,-0.4 -0.7,-0.9 -1,-1.3 -1.099998,-1.40001 -2.099998,-3 -3.299999,-4.30001 -1.400001,-1.69999 -2.799999,-3.299996 -4.299999,-4.899995 0,0 0,0 -0.1,-0.1 -0.2,-0.300003 -0.5,-0.599999 -0.7,-1 -0.8,-1 -1.5,-2.099999 -2.3,-3.099999 -1.900001,-2.599998 -3.5,-5.400001 -5.400001,-8 -1.200001,-1.699997 -2.599999,-3.300003 -3.700001,-5.099998 -1.1,-1.599999 -2,-3.400002 -3,-5.099999 -1.6,-2.699997 -3.5,-5.199997 -5.299999,-7.800003 -2.299999,-3.299999 -4.4,-6.5 -6.4,-10 -0.899999,-1.5 -1.6,-3.099998 -2.399999,-4.700001 -0.2,-0.400001 -0.4,-0.900001 -0.7,-1.299999 0,-0.1 -0.1,-0.1 -0.1,-0.200001 -0.2,-0.900001 -0.600001,-1.799999 -0.9,-2.599998 -0.5,-1.5 -1.1,-3.099998 -1.6,-4.599998 -0.4,-1.200001 -0.800001,-2.400002 -1.2000003,-3.599999 -0.1999998,-0.5 -0.3000002,-0.900001 -0.5,-1.400001 0,-0.1 -0.1000004,-0.3 -0.1000004,-0.5 0,-2 -0.3999996,-4 -0.6000004,-6 -0.1999998,-1.600001 0.1999998,-3.4 0.3000002,-5 C 9.1000004,25.200001 9.3000002,24.1 9.1999998,23.299999 Z M 9.1000004,23.5 c 0,0.299999 -0.2000008,0.5 0,0 z M 99,15 c 0,0.1 -0.1,0.2 -0.1,0.2 0,-0.1 0,-0.2 0.1,-0.2 z m -0.199997,0.2 c -0.300003,0.399999 -0.599998,0.5 -0.199997,0.1 0.09999,0 0.199997,0 0.199997,-0.1 z M 120.6,69.800003 c -1.2,2.199997 -2.4,4.400002 -3.9,6.400002 -1.5,2.099998 -3.1,4.099998 -4.5,6.199997 -1.4,2.199996 -2.7,4.300003 -4.2,6.400001 -0.9,1.300003 -1.9,2.5 -2.8,3.800003 0,0 0,0 0.1,-0.1 0,0 -0.1,0.1 -0.1,0.1 0,0 -0.1,0.1 -0.1,0.1 0,0 -0.1,0.1 -0.1,0.1 -0.5,0.599999 -1,1.199997 -1.5,1.800003 -0.7,0.800003 -1.4,1.699997 -2.1,2.5 0.4,-0.5 0.7,-1.099998 1.1,-1.599998 2.1,-3 4.2,-6.099999 6,-9.300003 1.1,-1.900002 2.1,-3.900002 3.3,-5.800003 1.2,-1.800004 2.6,-3.5 4,-5.300004 1.1,-1.5 2,-3.300003 3,-4.900001 0.90001,-1.5 1.80001,-3 2.6,-4.599999 1.9,-3.5 4,-6.799999 6.1,-10.099998 1.2,-2 2.39999,-4 3.60001,-6.099998 -1.10001,2.299999 -2.2,4.599998 -3.4,6.900001 C 125.2,60.900002 123.1,65.400002 120.6,69.800003 Z M 96,12.6 c 0.199997,-0.1 0.199997,-0.1 0,0 z m -9.5,10.9 c 0,0.1 -0.199997,0.299999 0,0 z m -5.300003,9.599998 c 1.5,-2.7 3,-5.399999 4.5,-8.1 0.300003,-0.5 0.800003,-1.1 0.900001,-1.6 0.199997,-0.200001 0.400002,-0.5 0.599999,-0.700001 1.199997,-1.4 2.5,-2.799999 3.699997,-4.299999 0.699997,-0.8 1.5,-1.700001 2.199997,-2.5 0.699997,-0.8 1.400001,-1.600001 2,-2.3 0.199997,-0.300001 0.5,-0.5 0.699997,-0.800001 0.1,-0.1 0.1,-0.1 0.1,-0.199999 0.599999,-0.300001 1.199997,-0.600001 1.800003,-1 0,0 -0.1,0.1 -0.1,0.1 -0.599999,0.5 -1.300003,0.9 -1.800003,1.6 -0.699997,0.9 -1.300003,1.800001 -2,2.7 -0.699997,0.9 -1.400002,1.799999 -2.099999,2.799999 0,0 0,0 -0.1,0.100001 -0.300003,0.399999 -0.599999,0.7 -0.900002,1.1 -1.300003,1.5 -2.900001,3 -4,4.699999 -1.199997,1.9 -2.300003,3.9 -3.5,5.9 -1.099998,1.699998 -2.300003,3.399999 -3.400001,5.1 -0.199997,0.200001 -0.300003,0.5 -0.5,0.799999 0,-0.1 0,-0.1 0.1,-0.200001 0.1,-0.2 0.199997,-0.400001 0.300003,-0.599998 0.600014,-0.899998 1.000008,-1.799995 1.500008,-2.599999 z M 7.5,43.400002 c 0.1,0.1 0.1,0.2 0.1,0.2 -0.1,-0.1 -0.1,-0.2 -0.1999998,-0.400001 -0.6999999,-2.099999 -1.6,-4.200001 -2.2000004,-6.299999 -0.5999999,-1.900002 -1,-3.8 -1.5,-5.8 -0.1,-0.299999 -0.1,-0.799999 -0.2999999,-1.1 0.2,-1.1 0.2999999,-2.299999 0.5,-3.5 0.2,-1.799999 0.6000001,-3.5 1.1000001,-5.199999 0.1999998,-0.700001 0.3000002,-1.299999 0.5,-2 0.1,-0.4 0.4000001,-0.9 0.3000002,-1.299999 0,0 0,0 0,-0.100001 0.1999998,-0.5 0.5,-1 0.6999998,-1.6 0.5,-1.2 1.0999999,-2.3 1.6000004,-3.5 0,0 0,0 0,-0.1 0.1999998,-0.100001 0.3999996,-0.3 0.5,-0.4 C 10.5,11.100003 12.700001,9.9000034 14.5,8.5000029 c 0.3,0 0.6,0 0.7,0 1.3,0.1000003 2.599999,0.3000002 3.8,0.3999996 1.1,0.1000004 2.1,0.3000002 3.200001,0.3999996 0.299999,0.1000004 0.6,0.3000002 0.899999,0.3999996 0.100001,0.1000004 0.3,0.1000004 0.4,0.1999998 -0.6,-0.1000004 -1.1,-0.1000004 -1.700001,0 C 20.5,10.000002 19.199999,10.200002 17.9,10.300001 c -0.9,0.100001 -2,0.100001 -2.800001,0.4 -1.8,0.899999 -3.599999,2.3 -5.2999998,3.399999 -0.6000003,0.4 -1.1000003,0.7 -1.3999996,1.4 -0.5,1 -0.9000001,2.1 -1.4000001,3.200001 -0.4000001,1 -0.8000002,2 -1.2999997,3 C 5.3999996,22.400002 5.3999996,23.1 5.2999997,23.900002 c -0.1,2 -0.5,4.1 -0.4000001,6.2 0,2 0.4000001,4.099999 0.5999999,6.200001 0.1999998,1.799999 0.9000001,3.400002 1.4000001,5.099999 0.4000001,1.099998 0.6999998,2.2 1.0999999,3.299999 C 7.8999996,44.5 7.7999997,44.299999 7.5999994,44 7.8000002,44 7.6999998,43.700001 7.5,43.400002 Z M 250,155.60001 c -0.10001,-1.10001 0,-2.30001 -0.2,-3.4 -0.19999,-1.2 -0.5,-2.3 -0.8,-3.5 -0.3,-1.1 -0.39999,-2.39999 -0.8,-3.5 -0.30001,-1.1 -1,-2.1 -1.4,-3.1 -0.6,-1.2 -1.1,-2.5 -1.69999,-3.7 -0.5,-0.8 -1.2,-1.60001 -1.80001,-2.4 -0.89999,-1.1 -1.8,-2.39999 -2.69999,-3.5 -0.60001,-0.69999 -1.5,-1.1 -2.2,-1.5 -1.3,-0.8 -2.60001,-1.6 -3.89999,-2.39999 -0.7,-0.5 -1.5,-0.60001 -2.30001,-0.8 -1.5,-0.4 -3.1,-0.7 -4.6,-1.1 -2.30001,-0.5 -4.7,-0.6 -7.10001,-0.8 -0.89999,-0.1 -1.60001,-0.2 -2.39999,0.1 -1.5,0.4 -2.9,0.9 -4.4,1.4 -2.3,0.7 -4.19999,1.79999 -6.3,2.9 -1,0.5 -2.10001,0.89999 -2.89999,1.6 -0.9,0.80001 -1.7,1.7 -2.60001,2.5 -3.2,3.2 -6.2,6.60001 -8.7,10.4 -2.5,3.89999 -5,7.8 -6.6,12.19999 -0.80001,2.10001 -1.60001,4.30001 -2.4,6.4 -0.8,2.1 -1.89999,4.3 -2.5,6.5 -0.6,2.3 -1.3,4.5 -2,6.8 -0.39999,-2.1 -1.19999,-4.1 -1.8,-6.1 -0.60001,-1.9 -1.2,-3.80001 -1.8,-5.7 C 174.8,160.8 173,157.00001 171,153.20001 c -1,-1.89999 -1.89999,-3.89999 -3.10001,-5.8 -1.3,-2 -2.39999,-4.3 -3.89999,-6.10001 -1.5,-1.89999 -3,-3.8 -4.7,-5.5 -0.6,-0.6 -1.3,-1.1 -2,-1.5 -1.19999,-0.89999 -2.39999,-1.8 -3.6,-2.69999 C 152,130.3 150,129.5 148.09999,128.5 c -0.89999,-0.39999 -1.7,-1 -2.7,-1.1 -1.19999,-0.19999 -2.39999,-0.3 -3.6,-0.4 -2.10001,-0.3 -4,-0.4 -6.10001,-0.4 -2.2,0.1 -4.5,-0.2 -6.6,0.6 -1.40001,0.5 -2.90001,1.1 -4.30001,1.6 -0.69999,0.30001 -1.6,0.5 -2.19999,0.9 -1.1,0.69999 -2.2,1.69999 -3.30001,2.5 -0.9,0.69999 -2.1,1.3 -2.8,2.19999 -0.6,0.80001 -1,1.80001 -1.4,2.7 -0.6,1.10001 -1.2,2.3 -1.8,3.39999 -0.40001,0.80001 -0.40001,1.7 -0.5,2.5 -0.2,1.5 -0.40001,2.9 -0.7,4.4 -0.3,2.1 -0.2,4.3 -0.1,6.5 -0.2,0.89999 -0.3,1.8 -0.4,2.8 -0.4,4.60001 -0.6,9.2 -1,13.8 -0.2,2.10001 0.2,4.30001 0.4,6.4 0.2,2.2 0.9,4.1 1.6,6.1 1.3,3.9 2.7,7.7 4.4,11.4 0.9,1.8 1.6,3.8 2.7,5.5 1.3,1.8 2.69999,3.5 3.8,5.39999 1.2,2.10001 2.1,4.30001 3.3,6.4 1.1,1.89999 2.4,3.8 3.5,5.69999 2.2,3.4 4.5,6.80001 6.60001,10.2 2.1,3.39999 3.89999,6.89999 5.89999,10.3 2.30001,3.9 4.60001,7.7 6.80001,11.7 1.1,2 2.1,4.10001 3.19999,6.10001 1,1.90001 2.2,3.59999 3.30001,5.40001 2.1,3.29998 4.1,6.70001 6,10.20001 0.89999,1.70001 1.89999,3.39999 2.69999,5.20001 0.9,1.89999 1.7,3.89999 2.80001,5.70001 1.19999,2 2.39999,3.9 3.6,5.9 0.9,1.5 2.8,0.79998 3.2,-0.5 1.39999,-1.4 2.8,-2.79999 4.1,-4.29999 1.5,-1.70001 2.9,-3.60001 4.30001,-5.29999 2.89999,-3.5 6,-6.89999 9.1,-10.29999 3.10001,-3.39999 5.9,-7 8.80001,-10.5 1.5,-1.8 3,-3.5 4.39999,-5.19999 1.5,-1.9 2.89999,-3.9 4.39999,-5.80001 1.4,-1.8 3,-3.5 4.2,-5.39999 1.2,-1.9 2,-4.10001 3.2,-6.10001 1.2,-2.1 2.8,-4 4.1,-6 1.30001,-2 2.4,-4 3.60001,-6 4.60001,-7.6 8.39999,-15.5 12.5,-23.3 2,-3.89999 3.8,-7.89999 5.7,-11.8 1,-2.10001 2.39999,-4.2 3.1,-6.5 0.7,-2.2 1.4,-4.4 1.9,-6.7 0.5,-2.39999 1.19999,-4.8 1.5,-7.2 0.3,-2.3 0.8,-4.69999 0.8,-7 0.10001,-1.90004 2e-5,-3.30005 -0.1,-4.60003 z M 190,157 c 0.10001,-0.10001 0.10001,-0.3 0.2,-0.39999 0.69999,-1.4 1.39999,-2.80001 2.1,-4.2 1,-2 2.2,-3.7 3.4,-5.60001 0.39999,-0.6 0.69999,-1.1 1.1,-1.69999 0.10001,-0.10001 0.2,-0.30001 0.30001,-0.4 0.89999,-1 1.69999,-2 2.5,-3 1.39999,-1.7 2.89999,-3.3 4.5,-4.89999 0.8,-0.80001 1.69999,-1.5 2.39999,-2.4 0.2,-0.1 0.39999,-0.19999 0.5,-0.3 0.7,-0.39999 1.39999,-0.7 2.10001,-1.10001 0.69999,-0.39999 1.39999,-0.69999 2.1,-1.1 0.4,-0.2 1,-0.4 1.4,-0.7 0.1,0 0.19999,-0.1 0.3,-0.1 0.7,-0.2 1.3,-0.4 2,-0.60001 1.39999,-0.39999 2.8,-0.8 4.10001,-1.3 0,0 0.1,0 0.1,0 0.60001,0.1 1.3,0.1 1.9,0.19999 1.5,0.10001 2.89999,0.30001 4.39999,0.4 0.10001,0 0.10001,0 0.2,0 0.5,0.19999 1.19999,0.3 1.69999,0.39999 1.5,0.3 2.9,0.7 4.4,1 0.19999,0 0.3,0.10001 0.5,0.10001 0.3,0.3 0.8,0.5 1.19999,0.69999 1.30001,0.80001 2.7,1.7 4,2.5 0.10001,0.10001 0.30001,0.2 0.4,0.2 0,0 0,0 0,-0.1 0,0 0,0 0,0.1 0.1,0 0.1,0.10001 0.19999,0.10001 0.30001,0.1 0,0.1 -0.19999,-0.10001 0.1,0.3 0.6,0.7 0.8,1 1,1.3 2,2.5 3,3.8 0.10001,0.10001 0.2,0.30001 0.3,0.4 0,0 0.10001,0.1 0.10001,0.1 0.2,0.30001 0,0.10001 -0.10001,0 0.10001,0.30001 0.4,0.80001 0.5,1 0.7,1.4 1.30001,2.9 2,4.30001 0.2,0.3 0.30001,0.69999 0.5,1 -0.3,-0.7 -0.19999,-0.10001 0,0.3 -0.6,-1.10001 -1.1,-2.3 -1.69999,-3.39999 -0.4,-0.80001 -0.80001,-1.9 -1.4,-2.60001 -0.6,-0.7 -1.5,-1.3 -2.19999,-2 -1.4,-1.3 -2.9,-3.10001 -4.7,-4 -2.2,-1.10001 -4.39999,-2.3 -6.7,-3.3 -0.89999,-0.4 -1.89999,-0.2 -2.89999,-0.2 -1.5,0 -3,0 -4.4,0.10001 -2.1,0 -4.19999,0.89999 -6.19999,1.6 -0.80001,0.30001 -1.80001,0.4 -2.60001,0.9 -1,0.5 -2,1.19999 -3,1.8 -1,0.60001 -2,1.2 -3,1.8 -0.7,0.5 -1.3,1.2 -1.89999,1.80001 -1.4,1.5 -2.9,2.89999 -4.30001,4.39999 -1,1 -1.89999,2.10001 -2.89999,3.10001 -0.60001,0.69999 -1.39999,1.39999 -1.89999,2.1 -1.30001,2 -2.4,4.10001 -3.5,6.2 -0.9,1.6 -1.7,3.1 -2.60001,4.7 0.2,-0.5 0.39999,-1.10001 0.60001,-1.60001 0.1,-0.2 0.29995,-0.60001 0.39996,-1 z m 53.5,7.60001 c 0,0 0,-0.10001 0,-0.10001 0,0.10001 -0.10001,0.3 -0.10001,0.39999 -0.19999,0.7 -0.3,1.30001 -0.5,2 -0.3,1.4 -0.69999,2.7 -1,4.10001 -0.5,1.89999 -1.3,3.7 -2,5.5 -0.6,1.7 -1.3,3.39999 -1.89999,5.2 -0.5,1.3 -1,2.6 -1.39999,3.89999 0,0.10001 -0.10001,0.10001 -0.10001,0.2 -0.2,0.3 -0.39999,0.69999 -0.60001,1 -1.1,1.89999 -2.1,3.89999 -3.19999,5.69999 -1.30001,2 -2.80001,4 -4.10001,6 -1.10001,1.7 -2,3.7 -2.89999,5.5 -0.9,1.80001 -2.30001,3.4 -3.5,5.10001 -1.2,1.60001 -2.2,3.2 -3.2,4.89999 -2,3.4 -3.89999,6.80001 -5.89999,10.2 -2.2,3.60001 -4.60001,7.2 -6.9,10.7 -2.5,3.8 -4.89999,7.5 -7.39999,11.3 -1.10001,1.7 -2.4,3.4 -3.7,5 -1.2,1.60001 -2.2,3.3 -3.3,5 -2.10001,3.29999 -4.2,6.60001 -6.5,9.70001 -0.8,1.10001 -1.7,2.29999 -2.5,3.4 -0.10001,0.20001 -0.3,0.29999 -0.3,0.39999 0,0 0.1,-0.1 0.19999,-0.20001 -0.3,0.29999 -0.6,0.70001 -0.8,1 -1.39999,1.70001 -2.89999,3.29999 -4.2,5 -0.69999,1 -1.3,1.89999 -2,2.89999 -1.6,-3.29998 -3.1,-6.5 -4.8,-9.79998 -1.89999,-3.70002 -4.2,-7.20002 -6.60001,-10.60001 -2.3,-3.39999 -4.39999,-6.89999 -6.69999,-10.3 -1.2,-1.80001 -2.4,-3.5 -3.5,-5.30001 -1.10001,-1.89999 -2.10001,-3.8 -3.4,-5.6 -1.39999,-1.9 -3,-3.60001 -4.2,-5.60001 -1.19999,-1.89999 -2.1,-4.1 -3.1,-6.1 -2.10001,-3.9 -4.2,-7.7 -6.2,-11.60001 -2,-3.8 -4,-7.5 -5.89999,-11.3 -1.80001,-3.7 -3.5,-7.5 -5.2,-11.2 -0.3,-0.60001 -0.6,-1.3 -0.9,-1.89999 -0.1,-0.2 -0.5,-1.2 -0.2,-0.4 -0.4,-1.1 -0.9,-2.2 -1.3,-3.3 -0.8,-2 -1.6,-4 -2.5,-6 -0.6,-1.2 -1.1,-2.5 -1.7,-3.7 0,0 0,0 0,-0.1 0,0 0,-0.10001 0,-0.10001 -0.1,-0.60001 -0.3,-1.10001 -0.5,-1.7 -0.6,-2 -1.3,-4 -1.69999,-6.1 -0.30001,-1.5 -0.5,-3 -0.80001,-4.60001 -0.1,-0.39999 -0.1,-0.8 -0.19999,-1.2 0,-0.1 0,-0.19999 0,-0.3 -0.30001,-2.2 -0.7,-4.39999 -0.80001,-6.60001 0,-0.3 0,-0.69999 0,-1 0.1,-0.69999 0.2,-1.39999 0.4,-2.1 0.1,-0.60001 0.2,-1.2 0.30001,-1.7 0,-0.10001 0.1,-0.3 0.1,-0.5 0.59999,-0.8 0.9,-2 1.4,-2.8 0.6,-1.2 1.19999,-2.5 1.8,-3.7 0,-0.10001 0.1,-0.2 0.2,-0.3 0.3,-0.2 0.5,-0.5 0.69999,-0.7 1,-1 2.1,-2 3.1,-3.10001 0.4,-0.39999 0.9,-0.89999 1.30001,-1.3 0.1,-0.10001 0.1,-0.10001 0.19999,-0.2 0.80001,-0.3 1.7,-0.69999 2.4,-1 1.30001,-0.5 2.60001,-1.1 3.9,-1.6 0.1,0 0.5,-0.10001 0.69999,-0.2 -0.19999,0.10001 -0.5,0 -0.1,0 0,0 0.1,0 0.1,0 0,0 0.10001,0 0.10001,-0.10001 0,0 0,0 -0.10001,0.10001 0.2,0 0.4,0 0.60001,0 1.39999,0 2.89999,0 4.3,0.10001 0.5,0 1.10001,0 1.60001,0 0.10001,0 0.10001,0 0.10001,0 1.19999,0.5 2.6,0.69999 3.8,1.1 0.60001,0.2 1.3,0.4 1.89999,0.5 0.2,0.10001 0.4,0.10001 0.7,0.2 0,0 0.10001,0 0.10001,0 0.19999,0.10001 0.6,0.3 0.69999,0.39999 0.60001,0.4 1.30001,0.7 1.9,1.10001 1.1,0.60001 2.19999,1.39999 3.39999,1.89999 0,0 0,0 0.10001,0 0.39999,0.4 0.8,0.80001 1.19999,1.10001 1.10001,1 2.10001,2 3.2,3 0.2,0.2 0.5,0.60001 0.8,0.7 0.10001,0.1 0.10001,0.19999 0.2,0.3 1.3,1.8 2.60001,3.60001 3.89999,5.39999 1.4,1.9 3,3.80001 4.30001,5.7 1.19999,1.8 2,3.89999 2.89999,5.8 0.9,1.80001 1.60001,3.60001 2.4,5.4 0.19999,0.6 0.5,1.1 0.69999,1.7 0.2,0.39999 0.30001,1.1 0.2,0.3 0.2,1.1 0.7,2.1 1,3.1 1.2,3.9 2.3,7.7 3.2,11.7 0.39999,1.7 0.8,3.4 1.19999,5.2 0,0.2 -0.1,0.39999 -0.1,0.5 -0.30001,1.3 0.8,2.1 1.8,2.2 0.39999,0 0.89999,-0.10001 1.3,-0.30001 0.4,0.4 1,0.5 1.5,0.4 0.80001,0.19999 1.7,-0.2 1.9,-1.2 1.8,-8.10001 3.89999,-15.89999 6.89999,-23.7 0.5,-1.3 1,-2.6 1.5,-3.89999 0,-0.10001 0.10001,-0.2 0.10001,-0.30001 0.19999,-0.19999 0.39999,-0.69999 0.5,-1 1,-1.89999 2,-3.69999 3.1,-5.6 0.60001,-1.10001 1.2,-2.2 1.9,-3.3 0.39999,-0.60001 0.69999,-1.2 1.1,-1.9 0.2,-0.3 0.5,-0.7 0.60001,-1 0.10001,-0.1 0.10001,-0.2 0.2,-0.2 0.39999,-0.5 0.8,-0.89999 1.3,-1.39999 1,-1 1.89999,-2.10001 2.89999,-3.10001 1.4,-1.5 2.9,-2.89999 4.30001,-4.39999 0.39999,-0.39999 0.69999,-0.7 1.1,-1.10001 0,0 0.10001,-0.1 0.10001,-0.1 1.10001,-0.60001 2.2,-1.3 3.3,-2 0.60001,-0.3 1.10001,-0.7 1.7,-1 0.2,-0.10001 0.60001,-0.3 0.89999,-0.5 0.2,0 0.30001,-0.10001 0.4,-0.10001 0.69999,-0.19999 1.3,-0.39999 2,-0.6 1.3,-0.4 2.6,-0.7 3.8,-1.2 0.10001,0 0.10001,0 0.10001,0 0.5,0 1,0 1.5,0 1.5,0 2.89999,0 4.39999,-0.10001 0.2,0 0.60001,0 0.8,0 0,0 0.10001,0 0.10001,0 1.3,0.60001 2.5,1.2 3.8,1.80001 0.80001,0.39999 1.9,1.19999 2.80001,1.39999 0.1,0.10001 0.1,0.10001 0.19999,0.10001 0.5,0.39999 0.9,0.89999 1.4,1.3 1.1,1 2.19999,2 3.3,3 0.10001,0.10001 0.5,0.60001 0.7,0.7 0.1,0.1 0.1,0.19999 0.19999,0.3 0.60001,1.2 1.2,2.39999 1.80001,3.60001 0.39999,0.8 0.8,2.1 1.39999,2.8 0.10001,0.5 0.10001,1.1 0.2,1.6 0.3,2 0.69999,4 0.69999,5.9 0,1.39999 0,2.7 0,4.1 0,0.80001 -0.19999,2 0,2.80001 0,-0.30001 0.2,-0.30001 0,0 0,0 0,0.1 0,0.1 C 243.5,164.5 243.5,164.5 243.5,164.60001 Z M 124.8,137.5 c 0.1,-0.10001 0.1,-0.10001 0,0 z m 66.2,25.89999 c 0,-0.1 0.10001,-0.1 0.10001,-0.19999 0.1,-0.30001 0,0.1 -0.10001,0.19999 z M 171.3,162.5 c 0,0.10001 0,0.10001 0.10001,0.10001 0,0 0,0 0,0.1 0,0 0,0.10001 0,0.10001 -0.39999,-0.9 -0.8,-1.80001 -1.3,-2.7 -0.2,-0.5 -0.4,-0.89999 -0.7,-1.39999 0.3,0.69999 0.7,1.5 1,2.19999 C 170.8,161.5 171.10001,162 171.3,162.5 Z M 161,143.39999 c 0,0.10001 0,0.10001 0,0 0.3,0.40001 0.10001,0.30001 0,0 z M 119.1,136.3 c 0.4,-0.3 0.8,-0.6 1.3,-1 1.1,-0.8 2.2,-1.69999 3.4,-2.5 0.1,-0.1 0.40001,-0.19999 0.40001,-0.3 0.4,-0.10001 0.69999,-0.3 1.09999,-0.39999 1.40001,-0.5 2.80001,-1.10001 4.30001,-1.60001 0.3,-0.10001 0.89999,-0.2 1.19999,-0.39999 0.10001,0 0.2,0 0.30001,0 1.39999,0 2.89999,-0.10001 4.3,-0.10001 2.1,-0.10001 4,0.10001 6.1,0.39999 1,0.10001 2.30001,0.4 3.30001,0.4 0.5,0.3 1.1,0.6 1.69999,0.89999 1.80001,0.9 3.7,1.7 5.4,3 1.2,0.9 2.39999,1.8 3.7,2.7 0.39999,0.3 0.69999,0.6 1.1,0.8 0,0 0.10001,0.10001 0.10001,0.2 0.8,1.1 1.8,2.2 2.69999,3.2 0.4,0.5 0.80001,1 1.2,1.5 0.10001,0.1 0.2,0.3 0.4,0.39999 0.39999,1 1.19999,1.89999 1.69999,2.7 0.7,1.1 1.4,2.19999 2.10001,3.3 1.2,2 2.3,4.2 3.3,6.3 -0.19999,-0.39999 -0.5,-0.89999 -0.8,-1.3 -2.8,-3.8 -5.60001,-7.60001 -8.4,-11.39999 -1.3,-1.80001 -3.3,-3.2 -4.89999,-4.80001 -1.60001,-1.5 -3.5,-2.39999 -5.3,-3.39999 -0.9,-0.5 -1.80001,-1.10001 -2.7,-1.5 -0.89999,-0.3 -1.89999,-0.60001 -2.89999,-0.8 -2.10001,-0.60001 -4,-1.2 -6.2,-1.30001 -1.5,0 -3,0 -4.5,-0.1 -0.7,0 -1.3,0 -2,0.19999 -2.39999,0.9 -4.7,1.9 -7,2.9 -0.8,0.3 -1.3,0.89999 -2,1.5 -1.1,1.1 -2.2,2.1 -3.2,3.19999 -0.4,0.4 -0.8,0.80001 -1.19999,1.2 0.1,-0.2 0.19999,-0.39999 0.3,-0.60001 C 117.8,138.7 118.6,137.5 119.1,136.3 Z m 10.79999,73.59999 c -1.1,-1.89999 -2,-3.8 -3,-5.69999 -0.9,-1.7 -2.19999,-3.30001 -3.3,-4.9 -0.5,-0.69999 -1.1,-1.39999 -1.5,-2.1 -0.5,-0.9 -0.9,-1.9 -1.3,-2.80001 -0.6,-1.19999 -1.1,-2.39999 -1.7,-3.5 -0.2,-0.5 -0.4,-1.1 -0.6,-1.6 -0.69999,-1.9 -1.5,-3.80001 -2.19999,-5.7 -0.5,-1.39999 -0.90001,-2.7 -1.40001,-4.10001 -0.19999,-0.5 -0.3,-1 -0.5,-1.5 0,-0.1 -0.1,-0.1 -0.1,-0.19999 -0.1,-2.30001 -0.5,-4.60001 -0.5,-6.9 0,-0.3 0,-0.69999 0,-1 0.3,1.10001 0.5,2.30001 0.9,3.4 0.6,2.19999 1.3,4.19999 2.19999,6.19999 0.6,1.30001 1.2,2.7 1.80001,4 0,0.10001 0.1,0.2 0.1,0.30001 0.19999,0.5 0.4,0.89999 0.59999,1.39999 1.6,4.10001 3.5,8 5.40001,12 1.8,4 3.59999,8 5.7,11.9 2.10001,4 4.3,8 6.39999,11.89999 0,0.10001 0.10001,0.2 0.10001,0.2 -2.39998,-3.89997 -4.89998,-7.49997 -7.1,-11.29998 z m 38,64.5 c -1.6,-3.39999 -3.5,-6.79998 -5.5,-10 -2.1,-3.5 -4.5,-7 -6.5,-10.6 -1.1,-2.10001 -2.1,-4.2 -3.3,-6.30001 -1.10001,-1.89999 -2.2,-3.8 -3.39999,-5.69999 -0.80001,-1.4 -1.60001,-2.80001 -2.4,-4.2 0.10001,0.2 0.30001,0.3 0.4,0.5 1.3,1.7 2.3,3.7 3.39999,5.60001 2.10001,3.6 4.60001,7 6.8,10.5 2.30001,3.59999 4.80001,7.00001 7,10.59999 2.2,3.79999 4.4,7.6 6.30001,11.5 0.89999,1.89999 1.8,3.79999 2.6,5.6 0,0.29999 0.2,0.70002 0.4,0.9 -0.30001,0.29999 -0.60001,0.70001 -1,1 -0.80001,-1.29999 -1.5,-2.5 -2.30001,-3.79999 -0.89999,-1.70001 -1.59999,-3.70001 -2.5,-5.60001 z M 230.10001,205 c -2,3.8 -3.9,7.7 -6.10001,11.39999 -2.10001,3.7 -4.2,7.5 -6.60001,11 -1.3,1.9 -2.69999,3.7 -3.8,5.7 -1,2 -1.89999,4.2 -3.2,6 -1.39999,1.8 -2.8,3.60001 -4.1,5.3 -0.9,1.2 -1.80001,2.4 -2.7,3.60001 -0.3,0.39999 -0.7,0.89999 -1,1.3 0,0 -0.10001,0.10001 -0.2,0.2 -3,3.39999 -5.69999,7.10001 -8.6,10.5 -0.5,0.60001 -1,1.20001 -1.60001,1.79999 2.10001,-3.29999 4.10001,-6.60001 6.4,-9.80001 2.5,-3.3 4.69999,-6.69999 7,-10.19999 2.5,-3.80001 5,-7.5 7.39999,-11.2 2.39999,-3.7 4.60001,-7.60001 6.8,-11.5 2,-3.60001 4.2,-7 6.60001,-10.3 1.2,-1.7 2.2,-3.30001 3.2,-5.2 0.89999,-1.7 1.8,-3.3 2.89999,-4.89999 1.39999,-2 2.8,-4 4,-6.10001 -0.10001,0.10001 -0.10001,0.3 -0.2,0.39999 C 234.39999,197.10001 232.2,201 230.10001,205 Z M 242.7,179.5 c 0,0.10001 -0.10001,0.3 -0.10001,0.5 -0.3,0.60001 -0.7,1.2 -1,1.8 0.10001,-0.39999 0.3,-0.8 0.39999,-1.19999 0.60001,-1.60001 1.2,-3.2 1.80001,-4.80001 -0.2,0.60001 -0.4,1.30001 -0.60001,1.9 -0.1,0.6 -0.29999,1.19999 -0.49998,1.8 z"
             style="fill:#ff9595;fill-opacity:1;fill-rule:nonzero;stroke:none"
             id="path38" /></g></g></g></g></svg>
